<svg width="12" height="12" viewBox="0 0 12 12" fill="none" xmlns="http://www.w3.org/2000/svg">
<path d="M6.16699 6C7.80762 6 9.16699 4.66406 9.16699 3C9.16699 1.35938 7.80762 0 6.16699 0C4.50293 0 3.16699 1.35938 3.16699 3C3.16699 4.66406 4.50293 6 6.16699 6ZM8.25293 6.75H7.85449C7.33887 7.00781 6.77637 7.125 6.16699 7.125C5.55762 7.125 4.97168 7.00781 4.45605 6.75H4.05762C2.32324 6.75 0.916992 8.17969 0.916992 9.91406V10.875C0.916992 11.5078 1.40918 12 2.04199 12H10.292C10.9014 12 11.417 11.5078 11.417 10.875V9.91406C11.417 8.17969 9.9873 6.75 8.25293 6.75Z" fill="#CAB391"/>
</svg>
